<svg xmlns="http://www.w3.org/2000/svg" width="58" height="58" viewBox="0 0 58 58">
  <defs>
    <style>
      .cls-1 {
        fill: #cecdcd;
        fill-rule: evenodd;
      }
    </style>
  </defs>
  <path id="椭圆_94" data-name="椭圆 94" class="cls-1" d="M900,748a29,29,0,1,1-29,29A29,29,0,0,1,900,748Zm0,2a27,27,0,1,1-27,27A27,27,0,0,1,900,750Zm-4.76,23.167q0-5.688,4.788-5.688a4.2,4.2,0,0,1,3.24,1.206,3.963,3.963,0,0,1,1.116,2.772,4.58,4.58,0,0,1-.486,2.358,18.1,18.1,0,0,1-2.178,2.538A27.19,27.19,0,0,0,899.38,779a6.415,6.415,0,0,0-.972,2.106,12.863,12.863,0,0,0-.324,3.222h3.168a9.282,9.282,0,0,1,.27-2.754,5.1,5.1,0,0,1,.9-1.764,32.331,32.331,0,0,1,2.412-2.484,11.307,11.307,0,0,0,2.376-2.916,5.986,5.986,0,0,0,.558-2.61,6.51,6.51,0,0,0-2.178-5.13,7.932,7.932,0,0,0-5.454-1.926,9.354,9.354,0,0,0-3.078.5,7.729,7.729,0,0,0-2.646,1.566,6.421,6.421,0,0,0-1.728,2.412,12.015,12.015,0,0,0-.612,3.942h3.168Zm6.264,14.076h-3.492v3.672H901.5v-3.672Z" transform="translate(-871 -748)"/>
</svg>
