<svg id="组_34" data-name="组 34" xmlns="http://www.w3.org/2000/svg" width="62.844" height="54" viewBox="0 0 62.844 54">
  <defs>
    <style>
      .cls-1 {
        fill: #cecdcd;
      }

      .cls-1, .cls-2 {
        fill-rule: evenodd;
      }

      .cls-2 {
        fill-opacity: 0;
        stroke: #cecdcd;
        stroke-width: 2px;
      }
    </style>
  </defs>
  <path id="椭圆_95" data-name="椭圆 95" class="cls-1" d="M928,3860h-3v-2h3a1,1,0,0,0,1-1v-41a1,1,0,0,0-1-1H878a1,1,0,0,0-1,1v4h-2v-4a3,3,0,0,1,3-3h50a3,3,0,0,1,3,3v41A3,3,0,0,1,928,3860Zm-6,7H872a3,3,0,0,1-3-3v-41a3,3,0,0,1,3-3h50a3,3,0,0,1,3,3v41A3,3,0,0,1,922,3867Zm1-44a1,1,0,0,0-1-1H872a1,1,0,0,0-1,1v41a1,1,0,0,0,1,1h50a1,1,0,0,0,1-1v-41Zm-37,21a7,7,0,1,1,7-7A7,7,0,0,1,886,3844Zm0-11a4,4,0,1,0,4,4A4,4,0,0,0,886,3833Z" transform="translate(-868.156 -3813)"/>
  <path id="形状_39" data-name="形状 39" class="cls-2" d="M871,3850s5.607,12.32,20,1,19.641-14.26,34,0" transform="translate(-868.156 -3813)"/>
</svg>
