<svg id="组_41" data-name="组 41" xmlns="http://www.w3.org/2000/svg" viewBox="0 0 210 210"><defs><style>.cls-1{fill:#d73039;}.cls-2{opacity:0.06;isolation:isolate;}</style></defs><title>bg.47217fec</title><circle id="椭圆_88_拷贝_7" data-name="椭圆 88 拷贝 7" class="cls-1" cx="105" cy="105" r="105"/><path id="椭圆_86_拷贝_2" data-name="椭圆 86 拷贝 2" class="cls-2" d="M194.1,83.89l12.54,15.33a24.48,24.48,0,0,1,3.06-1.76c.16,2.26.27,4.53.28,6.83A18.47,18.47,0,0,0,205.26,130a19.65,19.65,0,0,0,1.32,1.69c-.52,2-1.1,3.89-1.72,5.81a23.61,23.61,0,0,1-3.68-33.19c.35-.44.72-.87,1.1-1.28l-13-15.86a37,37,0,0,1-36.26.22l-13.12,15.86A23.59,23.59,0,0,1,146,119a24.51,24.51,0,1,1-25-24h.5a24.76,24.76,0,0,1,14.05,4.35L148.16,84.1A37.05,37.05,0,0,1,134.66,48l-18.83-7.44a24.74,24.74,0,1,1,1.72-5.46l18.64,7.37a37,37,0,0,1,28.42-23.88,105.61,105.61,0,0,1,11.15,8.85A29.15,29.15,0,0,0,171,27a28,28,0,1,0,27.85,30.92,105.13,105.13,0,0,1,5.5,13.1A37.1,37.1,0,0,1,194.1,83.89ZM121.5,101A18.5,18.5,0,1,0,140,119.5h0A18.5,18.5,0,0,0,121.5,101Zm-28-89A18.5,18.5,0,1,0,112,30.5,18.5,18.5,0,0,0,93.5,12Z"/></svg>