<svg id="组_29" data-name="组 29" xmlns="http://www.w3.org/2000/svg" width="106" height="100" viewBox="0 0 106 100">
  <defs>
    <style>
      .cls-1, .cls-5 {
        fill: #f9f9f9;
      }

      .cls-2 {
        fill: #00ce60;
      }

      .cls-2, .cls-3, .cls-5, .cls-6 {
        fill-rule: evenodd;
      }

      .cls-3 {
        fill: #d4f3e2;
      }

      .cls-4 {
        fill: #ccf5df;
      }

      .cls-6 {
        fill: #aeeccb;
      }
    </style>
  </defs>
  <rect id="矩形_129" data-name="矩形 129" class="cls-1" x="1" y="29" width="42" height="53"/>
  <path id="圆角矩形_136" data-name="圆角矩形 136" class="cls-2" d="M887,1104H848a3,3,0,0,1-3-3v-51a3,3,0,0,1,3-3h39a3,3,0,0,1,3,3v51A3,3,0,0,1,887,1104Zm-2-53a1,1,0,0,0-1-1H849a1,1,0,0,0-1,1v49a1,1,0,0,0,1,1h35a1,1,0,0,0,1-1v-49Z" transform="translate(-845 -1020)"/>
  <path id="cccc_副本_2" data-name="cccc  副本 2" class="cls-3" d="M854,1095v-2h27v2H854Zm0-13h27v3H854v-3Zm23.946-5.01H857.054a4.235,4.235,0,0,1-.054-0.68c0-.18.014-0.35,0.024-0.52a4.034,4.034,0,0,1,.768-2.84c1-1.76,2.9-2.66,5.281-3.08a0.062,0.062,0,0,1,.064-0.03,5.858,5.858,0,0,0,1.982-.64l0.377-1.69a3.824,3.824,0,0,1-1.728-2.71,1.1,1.1,0,0,1-.794-0.7l-0.4-1.31a0.965,0.965,0,0,1,.607-1.16c-0.513-3.39.825-5.63,4.323-5.63s4.836,2.24,4.323,5.63a0.965,0.965,0,0,1,.607,1.16l-0.4,1.31a1.1,1.1,0,0,1-.794.7,3.784,3.784,0,0,1-1.728,2.7l0.378,1.71a6.446,6.446,0,0,0,2.116.65,0.073,0.073,0,0,1,.058.03c2.322,0.43,4.172,1.33,5.156,3.06a4.048,4.048,0,0,1,.764,2.84c0.01,0.17.024,0.34,0.024,0.52A4.353,4.353,0,0,1,877.946,1076.99ZM869,1090H854v-2h15v2Z" transform="translate(-845 -1020)"/>
  <rect id="矩形_119" data-name="矩形 119" class="cls-4" x="36" y="14" width="66" height="82"/>
  <rect id="矩形_122" data-name="矩形 122" class="cls-1" x="45" y="23" width="48" height="63"/>
  <path id="形状_41" data-name="形状 41" class="cls-5" d="M907,1028c0.619-.15,2.506-6.32,7-6s7,7,7,7h6l2,4-1,3-29-1,1-6S906.381,1028.15,907,1028Z" transform="translate(-845 -1020)"/>
  <path id="圆角矩形_133" data-name="圆角矩形 133" class="cls-2" d="M945,1120H883a6,6,0,0,1-6-6v-78a6,6,0,0,1,6-6h15v1a4,4,0,0,1,4-4h5a7,7,0,0,1,14,0h5a4,4,0,0,1,4,4v-1h15a6,6,0,0,1,6,6v78A6,6,0,0,1,945,1120Zm-18-89a1,1,0,0,0-1-1h-5a3,3,0,0,1-3-3,4,4,0,0,0-8,0,3,3,0,0,1-3,3h-5a1,1,0,0,0-1,1v3h26v-3Zm20,6a3,3,0,0,0-3-3H930v3H898v-3H884a3,3,0,0,0-3,3v76a3,3,0,0,0,3,3h60a3,3,0,0,0,3-3v-76Zm-9,72H890a3,3,0,0,1-3-3v-63a3,3,0,0,1,3-3h48a3,3,0,0,1,3,3v63A3,3,0,0,1,938,1109Zm0-65a1,1,0,0,0-1-1H891a1,1,0,0,0-1,1v61a1,1,0,0,0,1,1h46a1,1,0,0,0,1-1v-61Zm-24-17a2,2,0,1,1-2,2A2,2,0,0,1,914,1027Z" transform="translate(-845 -1020)"/>
  <path id="矩形_120" data-name="矩形 120" class="cls-3" d="M897,1100v-3h34v3H897Zm0-9h34v3H897v-3Zm0-6h34v3H897v-3Zm10-7h14v3H907v-3Z" transform="translate(-845 -1020)"/>
  <path id="cccc_副本_2_拷贝" data-name="cccc  副本 2 拷贝" class="cls-6" d="M925,1070.24a4.86,4.86,0,0,1-.059.75H902.059a4.86,4.86,0,0,1-.059-0.75c0-.2.016-0.38,0.026-0.56a4.778,4.778,0,0,1-.026-0.5,4.669,4.669,0,0,1,.867-2.62c1.1-1.93,3.178-2.91,5.784-3.37a0.1,0.1,0,0,1,.071-0.04,6.438,6.438,0,0,0,2.17-.69l0.413-1.86a4.165,4.165,0,0,1-1.893-2.96,1.211,1.211,0,0,1-.869-0.77l-0.443-1.43a1.065,1.065,0,0,1,.666-1.28c-0.562-3.71.9-6.16,4.734-6.16s5.3,2.45,4.734,6.16a1.066,1.066,0,0,1,.666,1.28l-0.443,1.43a1.211,1.211,0,0,1-.87.77,4.161,4.161,0,0,1-1.892,2.96l0.414,1.86a6.571,6.571,0,0,0,2.317.72,0.082,0.082,0,0,1,.064.03c2.543,0.48,4.569,1.46,5.647,3.36a4.624,4.624,0,0,1,.863,2.61,4.778,4.778,0,0,1-.026.5C924.984,1069.86,925,1070.04,925,1070.24Z" transform="translate(-845 -1020)"/>
</svg>
