<svg id="组_31_拷贝" data-name="组 31 拷贝" xmlns="http://www.w3.org/2000/svg" width="82" height="108" viewBox="0 0 82 108">
  <defs>
    <style>
      .cls-1 {
        fill: #f9f9f9;
      }

      .cls-1, .cls-2, .cls-3, .cls-4 {
        fill-rule: evenodd;
      }

      .cls-2 {
        fill: #00ce60;
      }

      .cls-3 {
        fill: #ccf5df;
      }

      .cls-4 {
        fill: #c7f0da;
      }
    </style>
  </defs>
  <path id="形状_42" data-name="形状 42" class="cls-1" d="M487,1409H410s-1.682-17.44,1-21,8.088-7.87,13-8,13.129-2.35,18-12c3.082-1.45,13,1,13,1s3.085,11.2,15,12c7.533,0.68,11.36-2.14,17,7C487.915,1394.86,487,1409,487,1409Z" transform="translate(-408 -1303)"/>
  <path id="椭圆_102" data-name="椭圆 102" class="cls-2" d="M465.132,1378.91a21.461,21.461,0,0,0,2.743,1.13c-2.771,10.85-10.406,19.16-19.875,21.36v-3.08C456.275,1396.12,462.866,1388.6,465.132,1378.91Z" transform="translate(-408 -1303)"/>
  <path id="椭圆_102_拷贝" data-name="椭圆 102 拷贝" class="cls-2" d="M455.98,1374.56a21.663,21.663,0,0,0,2.934,2.85c-0.611,9.46-4.777,17.72-10.914,22.9v-3.97a29.932,29.932,0,0,0,8-20.84C456,1375.19,455.989,1374.87,455.98,1374.56Z" transform="translate(-408 -1303)"/>
  <path id="椭圆_102_拷贝_2" data-name="椭圆 102 拷贝 2" class="cls-2" d="M448,1398.32v3.08c-9.469-2.2-17.1-10.51-19.875-21.36a21.461,21.461,0,0,0,2.743-1.13C433.134,1388.6,439.725,1396.12,448,1398.32Z" transform="translate(-408 -1303)"/>
  <path id="椭圆_102_拷贝_2-2" data-name="椭圆 102 拷贝 2" class="cls-2" d="M440,1375.5a29.932,29.932,0,0,0,8,20.84v3.97c-6.137-5.18-10.3-13.44-10.914-22.9a21.663,21.663,0,0,0,2.934-2.85C440.011,1374.87,440,1375.19,440,1375.5Z" transform="translate(-408 -1303)"/>
  <path id="形状_40" data-name="形状 40" class="cls-3" d="M463,1366c-7.074,3.56-27,0-27,0s-15.633-11.91-17-21a34.093,34.093,0,0,0,7-7s0.3-12.45,4-15,28-5,28-5l11,6,2,10,6,10v6S470.074,1362.44,463,1366Zm-1-18v-7l-8-9-3,1s-4.777,11.1-7,12-10,3-10,3l1,9s3.493,10.3,14,10,13-13,13-13v-6Z" transform="translate(-408 -1303)"/>
  <path id="椭圆_99" data-name="椭圆 99" class="cls-2" d="M480.742,1342.97a31.989,31.989,0,0,1-63.461.19L417,1342.05a0.768,0.768,0,0,0,.147-0.03,0.117,0.117,0,0,1,0-.02h0.137c2.792-.43,5.989-2.21,7.056-4.64a3.458,3.458,0,0,0,.662-2.14c0-.04,0-0.08,0-0.11s0-.07,0-0.11a23.986,23.986,0,0,1,46.492-8.31c0.006-.01.01-0.02,0.017-0.03,0.071,0.2.123,0.4,0.19,0.6,0.116,0.34.228,0.67,0.329,1.02,0.113,0.39.209,0.78,0.3,1.18,0.078,0.33.16,0.65,0.224,0.98,0.09,0.47.153,0.94,0.216,1.42,0.036,0.27.085,0.55,0.112,0.82,0.074,0.77.117,1.54,0.117,2.32a3.549,3.549,0,0,0,.662,2.17c1.1,2.54,4.484,4.4,7.338,4.76ZM469.177,1336H469v-2h-0.051a19.973,19.973,0,0,0-39.9,0H429v2h-0.146a11.847,11.847,0,0,1-7.164,9.1,27.979,27.979,0,0,0,54.637-.07A11.975,11.975,0,0,1,469.177,1336Z" transform="translate(-408 -1303)"/>
  <path id="矩形_128" data-name="矩形 128" class="cls-1" d="M466.2,1323l-1.2,6-7-5-0.4-1H440.4l-0.4,1-7,5-2-10h1v-13h35v17h-0.8Z" transform="translate(-408 -1303)"/>
  <path id="圆角矩形_139" data-name="圆角矩形 139" class="cls-2" d="M466.607,1331c0.084,0.33.138,0.66,0.2,1h-2.262a10,10,0,0,0-9.541-7H443a10,10,0,0,0-9.541,7H431.2c0.059-.34.113-0.67,0.2-1H431.2l-2.2-22a6,6,0,0,1,6-6h28a6,6,0,0,1,6,6l-2.2,22h-0.193ZM463,1306H435a3,3,0,0,0-3,3l1.477,17.72A11.98,11.98,0,0,1,443,1322h12a11.98,11.98,0,0,1,9.523,4.72L466,1309A3,3,0,0,0,463,1306Z" transform="translate(-408 -1303)"/>
  <path id="圆角矩形_102_拷贝" data-name="圆角矩形 102 拷贝" class="cls-4" d="M453,1316h-2v2a2,2,0,0,1-4,0v-2h-2a2,2,0,0,1,0-4h2v-2a2,2,0,0,1,4,0v2h2A2,2,0,0,1,453,1316Z" transform="translate(-408 -1303)"/>
  <path id="圆角矩形_98_拷贝_2" data-name="圆角矩形 98 拷贝 2" class="cls-2" d="M448.5,1368a15.5,15.5,0,0,1-15.5-15.5v-5.68a11.916,11.916,0,0,0,13.784-9.58,0.839,0.839,0,0,1,.039-0.1s0,0-.006-0.01a15.051,15.051,0,0,1,6.892-8.23,0.418,0.418,0,0,0,.026.07q0.66-.495,1.376-0.93c0.527,4.26,5.187,9.85,8.889,11.67v12.79A15.5,15.5,0,0,1,448.5,1368Zm5.045-34.97a17.325,17.325,0,0,0-4.048,5.77,14.991,14.991,0,0,1-13.5,11.16v2.54a12.5,12.5,0,0,0,25,0v-11.14A24.123,24.123,0,0,1,453.545,1333.03Z" transform="translate(-408 -1303)"/>
  <path id="圆角矩形_140" data-name="圆角矩形 140" class="cls-2" d="M490,1407v4H408v-5.67l1-13.33c0-7.73,7.268-14,15-14h2v-0.03c0.167,0.01.331,0.03,0.5,0.03a13.493,13.493,0,0,0,12.715-9h4.179a17.527,17.527,0,0,1-5.793,9h0.026c-0.078.06-.162,0.12-0.241,0.18-0.159.13-.322,0.25-0.486,0.37-0.213.16-.427,0.32-0.648,0.47-0.194.13-.395,0.25-0.6,0.37s-0.407.26-.617,0.38c-0.226.12-.459,0.24-0.69,0.35-0.2.1-.393,0.21-0.6,0.3-0.253.12-.512,0.22-0.771,0.32-0.193.08-.383,0.16-0.579,0.23-0.276.1-.559,0.18-0.841,0.27-0.189.06-.375,0.12-0.567,0.17-0.3.08-.606,0.14-0.912,0.21-0.183.03-.362,0.08-0.546,0.11-0.338.06-.682,0.1-1.026,0.14-0.159.02-.315,0.05-0.475,0.06-0.507.05-1.02,0.07-1.538,0.07H424c-5.523,0-11,4.48-11,10l-0.849,15h73.7L485,1392c0-5.52-5.477-10-11-10h-7.157a17.718,17.718,0,0,1-8.538-4H458.4a17.527,17.527,0,0,1-5.793-9h4.179a13.493,13.493,0,0,0,12.715,9c0.169,0,.333-0.02.5-0.03V1378h4c7.732,0,15,6.27,15,14l1,13.33V1407Z" transform="translate(-408 -1303)"/>
</svg>
