<svg id="组_32_拷贝" data-name="组 32 拷贝" xmlns="http://www.w3.org/2000/svg" width="119" height="83" viewBox="0 0 119 83">
  <defs>
    <style>
      .cls-1 {
        fill: #f9f9f9;
      }

      .cls-1, .cls-3 {
        fill-rule: evenodd;
      }

      .cls-2 {
        fill: #ccf5df;
      }

      .cls-3 {
        fill: #00ce60;
      }
    </style>
  </defs>
  <path id="圆角矩形_142" data-name="圆角矩形 142" class="cls-1" d="M958.7,1339.89a16.925,16.925,0,0,1-.489,8.22l3.44,1.54-1.7,4.96-4.046-1.81a16.862,16.862,0,0,1-5.437,4.94l1.555,3.92-4.68,2.38-1.86-4.4a16.887,16.887,0,0,1-8.564-.41l-1.66,3.76-4.911-1.86,1.863-4.21a17.087,17.087,0,0,1-4.9-5.34l-3.787,1.41-2.233-4.76,4.13-1.49a16.971,16.971,0,0,1,.021-7.56l-4.08-1.83,1.7-4.96,4.329,1.93a16.935,16.935,0,0,1,5.113-5.4l-1.514-3.58,5.68-2.38,1.4,3.52a16.784,16.784,0,0,1,7.628-.07l1.06-2.4,4.911,1.86-1.087,2.46a16.885,16.885,0,0,1,6.535,6.91l3.378-1.23,1.233,4.76Z" transform="translate(-845 -1321)"/>
  <path id="圆角矩形_141_拷贝" data-name="圆角矩形 141 拷贝" class="cls-1" d="M919.5,1360.5v11h-9.047a27.785,27.785,0,0,1-3.587,9.09l6.272,6.27-7.778,7.78-5.97-5.97a27.737,27.737,0,0,1-9.39,4.41V1401H879v-7.32a27.8,27.8,0,0,1-10.588-3.81l-4.772,4.77-7.778-7.78,4.47-4.47a27.79,27.79,0,0,1-4.785-10.89H847.5v-11h8.047a27.79,27.79,0,0,1,4.785-10.89l-5.47-5.47,7.778-7.78,5.772,5.77A27.8,27.8,0,0,1,879,1338.32V1331h11v7.92a27.737,27.737,0,0,1,9.39,4.41l5.97-5.97,7.778,7.78-6.272,6.27a27.785,27.785,0,0,1,3.587,9.09H919.5Z" transform="translate(-845 -1321)"/>
  <circle id="椭圆_105" data-name="椭圆 105" class="cls-2" cx="38" cy="45" r="15"/>
  <path id="圆角矩形_141_拷贝-2" data-name="圆角矩形 141 拷贝" class="cls-3" d="M919,1374h-7.112a29.922,29.922,0,0,1-2.5,6.28l5.164,5.17a3,3,0,0,1,0,4.24l-6.364,6.36a3,3,0,0,1-4.243,0l-4.8-4.79a29.912,29.912,0,0,1-7.149,3.36V1401a3,3,0,0,1-3,3h-9a3,3,0,0,1-3-3v-5.6a29.818,29.818,0,0,1-8.281-3.01l-3.664,3.66a3,3,0,0,1-4.243,0l-6.364-6.36a3,3,0,0,1,0-4.24l3.3-3.3a29.825,29.825,0,0,1-3.632-8.15H848a3,3,0,0,1-3-3v-9a3,3,0,0,1,3-3h5.855a29.74,29.74,0,0,1,3.889-9.15l-4.3-4.3a3,3,0,0,1,0-4.24l6.364-6.36a3,3,0,0,1,4.243,0l4.663,4.66A29.836,29.836,0,0,1,877,1336.6V1331a3,3,0,0,1,3-3h9a3,3,0,0,1,3,3v6.38a29.912,29.912,0,0,1,7.149,3.36l4.8-4.79a3,3,0,0,1,4.243,0l6.364,6.36a3,3,0,0,1,0,4.24l-5.164,5.17a29.7,29.7,0,0,1,2.757,7.28H919a3,3,0,0,1,3,3v9A3,3,0,0,1,919,1374Zm-1-10a1,1,0,0,0-1-1h-8.2a25.848,25.848,0,0,0-4.492-11.86l6-6a0.994,0.994,0,0,0,0-1.41l-3.535-3.54a1,1,0,0,0-1.414,0l-5.786,5.79A25.879,25.879,0,0,0,888,1340.5V1333a1,1,0,0,0-1-1h-5a1,1,0,0,0-1,1v7.11a25.8,25.8,0,0,0-12.85,4.59l-5.51-5.51a1,1,0,0,0-1.414,0l-3.535,3.54a0.994,0.994,0,0,0,0,1.41l5.312,5.31a25.864,25.864,0,0,0-5.809,13.55H850a1,1,0,0,0-1,1v5a1,1,0,0,0,1,1h7.331a25.847,25.847,0,0,0,5.645,12.57l-4.285,4.29a0.994,0.994,0,0,0,0,1.41l3.535,3.54a1,1,0,0,0,1.414,0l4.5-4.5A25.873,25.873,0,0,0,881,1391.92V1399a1,1,0,0,0,1,1h5a1,1,0,0,0,1-1v-7.5a25.714,25.714,0,0,0,11.553-5.5l5.807,5.81a1,1,0,0,0,1.414,0l3.535-3.54a0.994,0.994,0,0,0,0-1.41l-6-6a25.928,25.928,0,0,0,4.363-10.86H917a1,1,0,0,0,1-1v-5Zm-35,19a17,17,0,1,1,17-17A17,17,0,0,1,883,1383Zm0-31.01A14.01,14.01,0,1,0,897.01,1366,14.008,14.008,0,0,0,883,1351.99Zm0,20.01a6,6,0,1,1,6-6A6,6,0,0,1,883,1372Zm0-9a3,3,0,1,0,3,3A3,3,0,0,0,883,1363Z" transform="translate(-845 -1321)"/>
  <path id="圆角矩形_142-2" data-name="圆角矩形 142" class="cls-3" d="M963.336,1339.97l-4.386,1.69a16.849,16.849,0,0,1-.261,4.53l4.433,1.98a1,1,0,0,1,.51,1.33l-2.867,6.44a1.019,1.019,0,0,1-1.33.51l-4.749-2.12a17.025,17.025,0,0,1-3.129,2.73l1.932,5.03a1,1,0,0,1-.579,1.3l-6.581,2.53a1.015,1.015,0,0,1-1.3-.58l-2.055-5.36a16.993,16.993,0,0,1-3.759-.21l-2.38,5.35a1,1,0,0,1-1.33.51l-6.439-2.87a1,1,0,0,1-.511-1.32l2.434-5.47a16.962,16.962,0,0,1-2.5-2.62l-5.573,2.14a1.006,1.006,0,0,1-1.3-.58l-2.527-6.58a1.007,1.007,0,0,1,.58-1.3l5.445-2.09a16.906,16.906,0,0,1-.022-3.79l-5.209-2.32a1,1,0,0,1-.51-1.33l2.867-6.44a1.019,1.019,0,0,1,1.329-.51l4.892,2.18a17.068,17.068,0,0,1,2.909-2.99l-1.854-4.83a1,1,0,0,1,.579-1.3l6.581-2.53a1.015,1.015,0,0,1,1.3.58l1.731,4.51a16.957,16.957,0,0,1,4.557-.01l1.906-4.28a1,1,0,0,1,1.33-.51l6.439,2.86a1.012,1.012,0,0,1,.511,1.33l-1.854,4.17a16.518,16.518,0,0,1,3.238,3.42l4.258-1.64a1.006,1.006,0,0,1,1.3.58l2.527,6.58A1.007,1.007,0,0,1,963.336,1339.97Zm-4.045-4.92-4.734,1.82a13.851,13.851,0,0,0-5.747-6.07l2.057-4.62-2.76-1.23-2.084,4.68a13.915,13.915,0,0,0-8.209.05l-1.941-5.05-2.82,1.08,1.987,5.18a13.891,13.891,0,0,0-5.436,5.66l-5.428-2.42-1.229,2.76,5.551,2.47a13.936,13.936,0,0,0,.049,7.49l-5.92,2.28,1.082,2.82,5.987-2.3a13.91,13.91,0,0,0,5.048,5.31l-2.611,5.86,2.76,1.23,2.585-5.8a14,14,0,0,0,7.462.43l2.187,5.69,2.82-1.08-2.142-5.58a13.971,13.971,0,0,0,5.922-5.11l5.1,2.27,1.229-2.76-4.963-2.21a13.924,13.924,0,0,0,.484-8.18l4.8-1.85Zm-20.146,14.36a7.005,7.005,0,1,1,9.245-3.55A7.008,7.008,0,0,1,939.145,1349.41Zm4.48-10.07a4,4,0,1,0,2.033,5.28A4.025,4.025,0,0,0,943.625,1339.34Z" transform="translate(-845 -1321)"/>
</svg>
