<svg xmlns="http://www.w3.org/2000/svg" width="67" height="52" viewBox="0 0 67 52">
  <defs>
    <style>
      .cls-1 {
        fill: #cecdcd;
        fill-rule: evenodd;
      }
    </style>
  </defs>
  <path id="圆角矩形_127" data-name="圆角矩形 127" class="cls-1" d="M933,1765H868a1,1,0,0,1,0-2h4v-39h14v-8a3,3,0,0,1,3-3h23a3,3,0,0,1,3,3v8h14v39h4A1,1,0,0,1,933,1765Zm-47-39H874v37h12v-37Zm11,37h7v-12a1,1,0,0,0-1-1h-5a1,1,0,0,0-1,1v12Zm16-47a1,1,0,0,0-1-1H889a1,1,0,0,0-1,1v47h6v-13a3,3,0,0,1,3-3h7a3,3,0,0,1,3,3v13h6v-47Zm14,10H915v37h12v-37Zm-8,6h4a1,1,0,0,1,0,2h-4A1,1,0,0,1,919,1732Zm0,8h4a1,1,0,0,1,0,2h-4A1,1,0,0,1,919,1740Zm0,7h4a1,1,0,0,1,0,2h-4A1,1,0,0,1,919,1747Zm-14-6h-9a1,1,0,0,1,0-2h9A1,1,0,0,1,905,1741Zm0-8h-9a1,1,0,0,1,0-2h9A1,1,0,0,1,905,1733Zm0-7h-9a1,1,0,0,1,0-2h9A1,1,0,0,1,905,1726Zm-27,14h4a1,1,0,0,1,0,2h-4A1,1,0,0,1,878,1740Zm0,7h4a1,1,0,0,1,0,2h-4A1,1,0,0,1,878,1747Zm4-13h-4a1,1,0,0,1,0-2h4A1,1,0,0,1,882,1734Z" transform="translate(-867 -1713)"/>
</svg>
